<?xml version="1.0" standalone="no"?>
<!DOCTYPE svg PUBLIC "-//W3C//DTD SVG 20010904//EN"
 "http://www.w3.org/TR/2001/REC-SVG-20010904/DTD/svg10.dtd">
<svg version="1.0" xmlns="http://www.w3.org/2000/svg"
 width="275.000000pt" height="183.000000pt" viewBox="0 0 275.000000 183.000000"
 preserveAspectRatio="xMidYMid meet">
<metadata>
Created by potrace 1.16, written by Peter Selinger 2001-2019
</metadata>
<g transform="translate(0.000000,183.000000) scale(0.100000,-0.100000)"
fill="#fff" stroke="none">
<path d="M772 1268 c-156 -156 -290 -295 -298 -310 -30 -57 -29 -58 289 -376
325 -324 326 -325 381 -281 20 15 26 29 26 57 0 35 -13 50 -222 259 l-223 223
756 0 c706 0 758 1 778 17 34 29 37 74 8 109 l-25 29 -756 0 -755 0 219 221
c207 207 220 222 220 257 0 49 -28 77 -77 77 -35 0 -51 -14 -321 -282z"/>
</g>
</svg>
