<svg id="Layer_5" enable-background="new 0 0 64 64" height="512" viewBox="0 0 64 64" width="512" xmlns="http://www.w3.org/2000/svg"><g><path d="m50 46c-2.206 0-4 1.794-4 4s1.794 4 4 4 4-1.794 4-4-1.794-4-4-4zm0 6c-1.103 0-2-.897-2-2s.897-2 2-2 2 .897 2 2-.897 2-2 2z"/><path d="m36 46c-2.206 0-4 1.794-4 4s1.794 4 4 4 4-1.794 4-4-1.794-4-4-4zm0 6c-1.103 0-2-.897-2-2s.897-2 2-2 2 .897 2 2-.897 2-2 2z"/><circle cx="56" cy="40" r="1"/><circle cx="56" cy="44" r="1"/><circle cx="54" cy="42" r="1"/><circle cx="58" cy="42" r="1"/><path d="m32 43h2v-2h-2v-2h-2v2h-2v2h2v2h2z"/><path d="m56 35h-3.938c-1.674 0-3.126 1.134-3.531 2.758-.184.731-.839 1.242-1.593 1.242h-2.938v-9c0-2.206-1.794-4-4-4h-1c-1.103 0-2-.897-2-2s.897-2 2-2h20c2.206 0 4-1.794 4-4s-1.794-4-4-4h-26v-10c0-1.654-1.346-3-3-3h-26c-1.654 0-3 1.346-3 3v52c0 1.654 1.346 3 3 3h21.384l.314 1.588c.279 1.397 1.516 2.412 2.942 2.412 3.495 0 6.455-2.433 7.164-5.823 1.983.456 4.432.823 7.196.823 3.049 0 5.89-.446 8.167-.963.655 3.464 3.651 5.963 7.193 5.963 1.426 0 2.663-1.015 2.941-2.411l1.679-8.393.02-10.196c0-3.859-3.141-7-7-7zm3-19c1.103 0 2 .897 2 2s-.897 2-2 2h-20c-2.206 0-4 1.794-4 4s1.794 4 4 4h1c1.103 0 2 .897 2 2v9h-1.938c-.754 0-1.408-.511-1.592-1.242-.406-1.624-1.858-2.758-3.532-2.758h-1.938v-19zm-28 5h-1c-.552 0-1-.448-1-1v-10c0-.552.448-1 1-1h1zm-11-18v54h-3v-54zm-17 53v-52c0-.552.448-1 1-1h11v54h-11c-.552 0-1-.448-1-1zm19 1v-54h8c.552 0 1 .448 1 1v3h-1c-1.654 0-3 1.346-3 3v10c0 1.654 1.346 3 3 3h1v12c-3.859 0-7 3.141-7 7v10l.989 5zm39-5.099-1.659 8.296c-.093.465-.505.803-.981.803-2.615 0-4.824-1.871-5.254-4.45 1.939-.539 3.162-1.032 3.273-1.078l-.758-1.852c-.058.025-5.895 2.38-12.621 2.38-6.662 0-11.513-2.329-11.561-2.353l-.88 1.796c.101.05 1.309.629 3.304 1.223-.477 2.517-2.649 4.334-5.223 4.334-.476 0-.888-.338-.98-.804l-1.66-8.295v-9.901c0-2.757 2.243-5 5-5h3.938c.754 0 1.408.511 1.592 1.242.406 1.624 1.858 2.758 3.532 2.758h6.877c1.674 0 3.126-1.134 3.531-2.758.183-.731.838-1.242 1.592-1.242h3.938c2.757 0 5 2.243 5 5z"/><path d="m42 43h2v2h-2z"/><path d="m46 43h2v2h-2z"/><path d="m38 43h2v2h-2z"/><path d="m9 47c-2.206 0-4 1.794-4 4s1.794 4 4 4 4-1.794 4-4-1.794-4-4-4zm0 6c-1.103 0-2-.897-2-2s.897-2 2-2 2 .897 2 2-.897 2-2 2z"/><path d="m5 31v14h8v-14zm6 12h-4v-10h4z"/></g></svg>